<?xml version="1.0" encoding="UTF-8"?>
<svg version="1.1" xmlns="http://www.w3.org/2000/svg" width="529" height="472">
<path d="M0 0 C0.9712532 -0.01029488 0.9712532 -0.01029488 1.96212769 -0.02079773 C4.10200954 -0.0390953 6.24116024 -0.03522428 8.38110352 -0.02954102 C9.86939228 -0.03410166 11.35767894 -0.03940688 12.84596252 -0.04542542 C15.96559197 -0.05436244 19.08496551 -0.05192713 22.20458984 -0.04199219 C26.20081829 -0.03050527 30.19616275 -0.05070559 34.19227505 -0.07990932 C37.26611434 -0.09826415 40.33974156 -0.09798032 43.4136219 -0.0922718 C44.88681338 -0.09211848 46.36001912 -0.09817218 47.83315849 -0.11056328 C49.89454286 -0.1254582 51.9542915 -0.11481032 54.015625 -0.09765625 C55.77410011 -0.097407 55.77410011 -0.097407 57.56809998 -0.09715271 C61.1957961 0.50803139 62.40972636 1.47153717 64.57250977 4.40405273 C64.57250977 5.39405273 64.57250977 6.38405273 64.57250977 7.40405273 C65.23250977 7.40405273 65.89250977 7.40405273 66.57250977 7.40405273 C68.03313827 10.0514419 68.57250977 11.29853608 68.57250977 14.40405273 C69.23250977 14.40405273 69.89250977 14.40405273 70.57250977 14.40405273 C71.88500977 16.81030273 71.88500977 16.81030273 73.19750977 19.21655273 C73.74665039 20.22073242 74.29579102 21.22491211 74.86157227 22.25952148 C75.94857394 24.25732136 77.02764461 26.25947284 78.09594727 28.26733398 C80.43558444 32.64332202 82.82338243 36.87495182 85.63500977 40.96655273 C87.67400525 43.94338076 89.38233893 46.90331331 90.94750977 50.15405273 C94.4740805 57.47054201 98.9149166 64.28657095 103.31469727 71.10327148 C104.57250977 73.40405273 104.57250977 73.40405273 104.57250977 76.40405273 C105.23250977 76.40405273 105.89250977 76.40405273 106.57250977 76.40405273 C108.03313827 79.0514419 108.57250977 80.29853608 108.57250977 83.40405273 C109.23250977 83.40405273 109.89250977 83.40405273 110.57250977 83.40405273 C111.10038086 84.38631836 111.10038086 84.38631836 111.63891602 85.38842773 C114.37258429 90.44178841 117.16135299 95.45054767 120.07250977 100.40405273 C122.78276295 105.01976777 125.37971435 109.68187123 127.92797852 114.38842773 C135.99584755 129.18271489 144.49675692 143.73816831 153.01000977 158.27905273 C155.59641159 162.70235277 158.13927748 167.14919211 160.67382812 171.60229492 C166.03367643 181.01831429 171.47464259 190.37985655 177.03198242 199.6809082 C180.19991619 205.00251214 183.21557274 210.38602557 186.16186523 215.83325195 C188.08141022 219.33148815 190.11980785 222.74810566 192.19750977 226.15405273 C196.0681378 232.5284087 199.81412577 238.94567336 203.32250977 245.52905273 C205.6086663 249.74343221 208.0393046 253.83352077 210.57250977 257.90405273 C220.4479521 273.8071163 220.4479521 273.8071163 221.57250977 279.40405273 C222.23250977 279.40405273 222.89250977 279.40405273 223.57250977 279.40405273 C224.10038086 280.38631836 224.10038086 280.38631836 224.63891602 281.38842773 C227.37258429 286.44178841 230.16135299 291.45054767 233.07250977 296.40405273 C235.40381054 300.38280606 237.70703461 304.37334145 239.94750977 308.40405273 C240.42961914 309.27030273 240.91172852 310.13655273 241.40844727 311.02905273 C242.46097846 313.17649893 243.10752081 315.06829424 243.57250977 317.40405273 C244.23250977 317.40405273 244.89250977 317.40405273 245.57250977 317.40405273 C245.91282227 318.03569336 246.25313477 318.66733398 246.60375977 319.31811523 C252.96504642 331.05942624 259.66068937 342.59272655 266.44750977 354.09155273 C267.01928955 355.06068604 267.59106934 356.02981934 268.18017578 357.02832031 C268.71956787 357.9399292 269.25895996 358.85153809 269.81469727 359.79077148 C270.29793457 360.60763428 270.78117187 361.42449707 271.27905273 362.26611328 C272.33208414 364.00665613 273.44408478 365.71141526 274.57250977 367.40405273 C275.49091169 373.94766642 273.84192106 377.30791652 270.29125977 382.75952148 C265.8238046 389.63331046 262.17969833 397.05093759 258.57250977 404.40405273 C257.91250977 404.40405273 257.25250977 404.40405273 256.57250977 404.40405273 C256.48356445 404.92612305 256.39461914 405.44819336 256.30297852 405.98608398 C255.30428937 409.29190528 253.61399296 412.12620167 251.88500977 415.09155273 C251.55823242 415.66583008 251.23145508 416.24010742 250.89477539 416.83178711 C250.2159584 418.00900892 249.51398652 419.17318958 248.78926516 420.32272106 C247.5156008 422.38967626 247.5156008 422.38967626 246.63184309 424.70403093 C245.24392374 427.57856566 244.01830805 429.32778281 241.57250977 431.40405273 C235.9451912 432.80354925 230.37396986 432.61559613 224.6048584 432.54017639 C222.83439195 432.54983008 221.06394329 432.5634113 219.2935338 432.58058351 C214.42685624 432.61626463 209.56178552 432.59568908 204.69512773 432.5659157 C199.44752775 432.54352624 194.20018428 432.57288343 188.95262146 432.59565735 C178.67211753 432.63185904 168.39221785 432.619445 158.11171424 432.58991856 C149.7580284 432.56687689 141.40450915 432.56173568 133.05079651 432.5694561 C131.86271181 432.57054647 130.67462712 432.57163685 129.45053986 432.57276027 C127.0371104 432.57506545 124.62368099 432.57741766 122.21025163 432.57981639 C99.56941405 432.60031733 76.92890931 432.56638536 54.28814059 432.51339721 C34.85333742 432.4690997 15.41895168 432.46905678 -4.01586914 432.50195312 C-26.57460003 432.54010406 -49.13309178 432.55259692 -71.69184351 432.52279371 C-74.09648796 432.51967506 -76.50113245 432.51658285 -78.90577698 432.51351738 C-80.08896608 432.51198819 -81.27215519 432.510459 -82.49119851 432.50888347 C-90.83666493 432.49981655 -99.18199839 432.50897168 -107.52745056 432.52498055 C-117.69529699 432.54391363 -127.86263597 432.53419788 -138.03040159 432.48768253 C-143.2201879 432.46464002 -148.40915615 432.45445923 -153.59895515 432.4788208 C-158.34780721 432.50073731 -163.09505361 432.4858658 -167.84373432 432.44132941 C-169.56368249 432.43167915 -171.28376974 432.43558285 -173.00364393 432.45422722 C-185.82421584 432.58214088 -185.82421584 432.58214088 -189.80034542 429.66047561 C-192.30356189 426.49688498 -193.42749023 424.4716991 -193.42749023 420.40405273 C-194.08749023 420.40405273 -194.74749023 420.40405273 -195.42749023 420.40405273 C-195.82967773 419.5474707 -195.82967773 419.5474707 -196.23999023 418.67358398 C-199.27271045 412.39864644 -202.76279058 406.53007218 -206.45483398 400.62280273 C-208.7241919 396.91992963 -210.80178946 393.14515806 -212.83764648 389.31030273 C-214.05368679 387.0873691 -215.30527319 384.91721525 -216.61108398 382.74780273 C-217.17085937 381.80698853 -217.17085937 381.80698853 -217.74194336 380.84716797 C-218.47674254 379.61669883 -219.22120187 378.39193454 -219.97631836 377.17382812 C-222.44612996 373.00751392 -222.44612996 373.00751392 -222.36499023 370.38061523 C-221.03320037 367.57275827 -219.55515924 364.90284883 -217.98999023 362.21655273 C-217.63799561 361.60924316 -217.28600098 361.00193359 -216.92333984 360.3762207 C-213.71850905 354.86008633 -210.46547256 349.37176778 -207.21972656 343.87963867 C-204.30971159 338.94271706 -201.47322287 333.9689744 -198.67749023 328.96655273 C-195.90816111 324.01162853 -193.08027913 319.10840607 -190.13452148 314.25561523 C-186.30064553 307.85120002 -182.60213536 301.36607084 -178.86987305 294.90209961 C-176.62014391 291.00581854 -174.36822722 287.11080614 -172.11499023 283.21655273 C-171.67445313 282.45511963 -171.23391602 281.69368652 -170.7800293 280.90917969 C-166.27185861 273.12386646 -161.73656473 265.35439539 -157.19775391 257.58691406 C-154.24972742 252.53949059 -151.32309652 247.48168413 -148.42749023 242.40405273 C-146.68138722 239.38095955 -144.92898251 236.36152583 -143.17749023 233.34155273 C-138.04127637 224.4730228 -138.04127637 224.4730228 -132.92749023 215.59155273 C-132.31905273 214.53323242 -131.71061523 213.47491211 -131.08374023 212.38452148 C-129.44211054 209.43036239 -127.91511583 206.43826469 -126.42749023 203.40405273 C-125.76749023 203.40405273 -125.10749023 203.40405273 -124.42749023 203.40405273 C-124.32331787 202.85837646 -124.21914551 202.3127002 -124.11181641 201.75048828 C-123.26670929 198.85276282 -121.9543491 196.49507562 -120.47827148 193.86108398 C-119.87692383 192.78665039 -119.27557617 191.7122168 -118.65600586 190.60522461 C-118.0237207 189.48696289 -117.39143555 188.36870117 -116.73999023 187.21655273 C-116.12704102 186.11762695 -115.5140918 185.01870117 -114.88256836 183.88647461 C-111.68452266 178.19917595 -108.36593497 172.67809391 -104.68945312 167.28808594 C-103.13300262 164.96440079 -101.78905451 162.56727706 -100.48999023 160.09155273 C-98.35954258 156.10393473 -96.15386837 152.17807241 -93.86499023 148.27905273 C-89.84231717 141.42363639 -85.91017022 134.55271165 -82.42749023 127.40405273 C-81.76749023 127.40405273 -81.10749023 127.40405273 -80.42749023 127.40405273 C-80.30003418 126.8155957 -80.17257813 126.22713867 -80.04125977 125.62084961 C-79.06377012 122.09037788 -77.12037186 119.05825793 -75.30249023 115.90405273 C-74.75334961 114.93725586 -74.75334961 114.93725586 -74.19311523 113.95092773 C-69.61464188 105.91523981 -64.91723319 97.94726331 -60.24389648 89.96655273 C-55.19348031 81.33615334 -50.15364874 72.70088993 -45.20874023 64.00952148 C-44.85625717 63.39037872 -44.50377411 62.77123596 -44.14060974 62.1333313 C-42.43014837 59.12755692 -40.72317286 56.11988031 -39.02148438 53.10913086 C-35.4974475 46.90487244 -31.85768017 40.81939585 -27.96142578 34.84106445 C-26.419563 32.39145849 -25.03246368 29.89853562 -23.67749023 27.34155273 C-20.86568246 22.09132087 -17.83016258 16.99354032 -14.73999023 11.90405273 C-14.02601074 10.71863892 -14.02601074 10.71863892 -13.29760742 9.50927734 C-12.84160156 8.76299072 -12.3855957 8.0167041 -11.91577148 7.24780273 C-11.50883057 6.57942383 -11.10188965 5.91104492 -10.68261719 5.22241211 C-7.51464499 0.63282702 -5.69542197 0.02626694 0 0 Z M-6.30639648 18.11889648 C-7.08157231 20.18970281 -7.79207842 22.28617921 -8.42749023 24.40405273 C-9.34711855 26.19529176 -10.30011299 27.97027288 -11.30249023 29.71655273 C-11.79104492 30.62018555 -12.27959961 31.52381836 -12.78295898 32.45483398 C-15.01103844 36.45055842 -17.37691596 40.35903842 -19.74584961 44.27197266 C-23.48237485 50.45766855 -27.10117079 56.70930704 -30.70947266 62.97045898 C-31.37039917 64.11708008 -31.37039917 64.11708008 -32.04467773 65.28686523 C-32.66294434 66.36436035 -32.66294434 66.36436035 -33.29370117 67.46362305 C-34.24259829 69.08761837 -35.23967658 70.68333337 -36.24780273 72.27124023 C-37.66949482 74.43536341 -37.66949482 74.43536341 -37.42749023 77.40405273 C-38.08749023 77.40405273 -38.74749023 77.40405273 -39.42749023 77.40405273 C-39.7794043 78.05889648 -40.13131836 78.71374023 -40.49389648 79.38842773 C-44.82570572 87.3960542 -49.22075204 95.39948649 -54.13452148 103.06811523 C-55.66962818 105.39652688 -55.66962818 105.39652688 -55.42749023 108.40405273 C-56.08749023 108.40405273 -56.74749023 108.40405273 -57.42749023 108.40405273 C-57.88575195 109.26450195 -57.88575195 109.26450195 -58.35327148 110.14233398 C-62.63266715 118.0863389 -67.15408195 125.8815012 -71.68920898 133.68139648 C-74.02406626 137.69935392 -76.32455208 141.73568126 -78.61499023 145.77905273 C-81.17423776 150.27474521 -83.82145805 154.69815314 -86.55249023 159.09155273 C-89.52051591 163.87047907 -92.28170374 168.71282159 -94.93920898 173.66967773 C-97.06631188 177.5777408 -99.3251392 181.40453142 -101.57983398 185.23999023 C-103.19488656 188.00572508 -104.78360859 190.78479723 -106.36206055 193.5715332 C-109.89135596 199.80020695 -113.55316839 205.92095436 -117.37280273 211.97827148 C-119.07364653 214.81408899 -120.67405679 217.66536671 -122.24780273 220.57202148 C-125.4377419 226.46317517 -128.7882672 232.25079816 -132.17749023 238.02905273 C-132.78729736 239.07158203 -133.39710449 240.11411133 -134.02539062 241.18823242 C-137.99586249 247.97270779 -141.97447601 254.75246772 -145.9675293 261.52368164 C-148.85648851 266.42342953 -151.72295416 271.33613099 -154.58740234 276.25024414 C-156.37569102 279.31527175 -158.16846675 282.37762686 -159.96264648 285.43920898 C-160.5446582 286.4337207 -161.12666992 287.42823242 -161.72631836 288.45288086 C-162.90479919 290.46660835 -164.08449263 292.47962667 -165.26538086 294.49194336 C-168.63262293 300.25101109 -171.90642061 306.04730595 -175.06591797 311.9230957 C-177.90848835 317.10261877 -181.0114404 322.13449342 -184.13842773 327.14624023 C-184.96213867 328.48041992 -184.96213867 328.48041992 -185.80249023 329.84155273 C-186.5565918 331.04618164 -186.5565918 331.04618164 -187.32592773 332.27514648 C-188.65726819 334.44862462 -188.65726819 334.44862462 -188.42749023 337.40405273 C-189.08749023 337.40405273 -189.74749023 337.40405273 -190.42749023 337.40405273 C-190.93795898 338.35151367 -190.93795898 338.35151367 -191.45874023 339.31811523 C-194.81220348 345.50775218 -198.25196607 351.63837662 -201.79858398 357.71899414 C-203.27188035 360.26753583 -204.49316112 362.60106539 -205.42749023 365.40405273 C-93.22749023 365.40405273 18.97250977 365.40405273 134.57250977 365.40405273 C130.18988887 357.89098834 125.79281907 350.47500867 121.17407227 343.11889648 C119.57250977 340.40405273 119.57250977 340.40405273 118.57250977 337.40405273 C117.91250977 337.40405273 117.25250977 337.40405273 116.57250977 337.40405273 C116.46680664 336.85104492 116.36110352 336.29803711 116.25219727 335.72827148 C115.4344672 332.93201064 114.18425107 330.72034344 112.69750977 328.21655273 C111.92793945 326.8959082 111.92793945 326.8959082 111.14282227 325.54858398 C109.68140071 323.11890669 109.68140071 323.11890669 106.57250977 322.40405273 C103.52574681 322.31179099 100.50225665 322.27820293 97.45555115 322.29052734 C96.51109841 322.29037848 95.56664567 322.29022963 94.59357315 322.29007626 C91.41522431 322.29077313 88.2369326 322.29862616 85.05859375 322.30639648 C82.78556348 322.30831474 80.51253279 322.30977897 78.23950195 322.31082153 C73.33839071 322.31398746 68.43729659 322.32026337 63.53619194 322.32888794 C55.79366558 322.34237515 48.05114499 322.34829691 40.30860901 322.35302734 C29.45980403 322.36036488 18.61100654 322.37048224 7.76220703 322.38354492 C7.07359614 322.38437273 6.38498526 322.38520055 5.67550737 322.38605344 C0.78700805 322.39195448 -4.10149111 322.39798859 -8.98999023 322.40405273 C-14.57584624 322.41098129 -20.16170232 322.41784848 -25.74755859 322.42456055 C-26.4356356 322.42538867 -27.1237126 322.4262168 -27.83264042 322.42707002 C-39.29332907 322.4407419 -50.75401677 322.45046708 -62.21471161 322.45747089 C-69.91889931 322.46246829 -77.623061 322.47235014 -85.3272382 322.48590088 C-90.11063221 322.49333473 -94.89402257 322.49667096 -99.67742157 322.49886703 C-101.90352786 322.50074681 -104.12963343 322.50436301 -106.35573387 322.50979996 C-109.38301139 322.51696363 -112.41023077 322.51805606 -115.43751526 322.51757812 C-116.77392078 322.52297057 -116.77392078 322.52297057 -118.13732439 322.52847195 C-124.19930455 322.51814557 -124.19930455 322.51814557 -126.42749023 321.40405273 C-126.42749023 317.77405273 -126.42749023 314.14405273 -126.42749023 310.40405273 C-125.76749023 310.40405273 -125.10749023 310.40405273 -124.42749023 310.40405273 C-124.15936523 309.83299805 -123.89124023 309.26194336 -123.61499023 308.67358398 C-120.58927725 302.41314495 -117.10718207 296.5577351 -113.42749023 290.66186523 C-107.84314784 282.00504109 -107.84314784 282.00504109 -104.42749023 272.40405273 C-103.76749023 272.40405273 -103.10749023 272.40405273 -102.42749023 272.40405273 C-101.89961914 271.29610352 -101.89961914 271.29610352 -101.36108398 270.16577148 C-98.30539216 263.88684337 -94.982374 257.9923745 -91.16967773 252.14624023 C-85.69725427 243.75906849 -85.69725427 243.75906849 -82.42749023 234.40405273 C-81.76749023 234.40405273 -81.10749023 234.40405273 -80.42749023 234.40405273 C-80.08717773 233.68862305 -79.74686523 232.97319336 -79.39624023 232.23608398 C-75.53769504 224.30348974 -71.12650381 216.86280444 -66.42749023 209.40405273 C-65.25350085 207.53362897 -64.08609149 205.65904722 -62.92749023 203.77905273 C-62.44280273 203.00303711 -61.95811523 202.22702148 -61.45874023 201.42749023 C-60.20045005 199.33708466 -60.20045005 199.33708466 -60.42749023 196.40405273 C-59.76749023 196.40405273 -59.10749023 196.40405273 -58.42749023 196.40405273 C-58.08717773 195.68862305 -57.74686523 194.97319336 -57.39624023 194.23608398 C-52.96765109 185.13156428 -47.75186553 176.66556401 -42.34936523 168.11499023 C-39.13333741 162.9718007 -36.08110951 157.8619021 -33.42749023 152.40405273 C-30.20745868 145.78123108 -26.35421622 139.62628958 -22.42749023 133.40405273 C-18.0561774 126.41159554 -13.8126176 119.40693855 -9.91577148 112.13842773 C-7.7845206 108.22274369 -5.52058723 104.3887485 -3.26342773 100.54467773 C-1.37970949 97.32231716 0.47470875 94.08463207 2.32250977 90.84155273 C11.57938431 74.6055779 20.93276969 58.41628204 30.57250977 42.40405273 C33.29775042 37.87236685 36.00339064 33.32929464 38.69750977 28.77905273 C39.32786133 27.72137695 39.32786133 27.72137695 39.97094727 26.64233398 C40.37829102 25.95268555 40.78563477 25.26303711 41.20532227 24.55249023 C41.74503662 23.64249268 41.74503662 23.64249268 42.2956543 22.71411133 C44.16472347 19.33263283 45.8626857 15.86818462 47.57250977 12.40405273 C40.72349671 12.09902452 33.87623845 11.88936604 27.02197266 11.74487305 C24.69253107 11.68463306 22.36354131 11.60281572 20.03564453 11.4987793 C4.84171159 9.92220058 4.84171159 9.92220058 -6.30639648 18.11889648 Z M57.57250977 19.40405273 C56.84547852 20.67635742 56.84547852 20.67635742 56.10375977 21.97436523 C45.57250977 40.40405273 45.57250977 40.40405273 44.57666016 42.14404297 C42.88857809 45.09458133 41.20705661 48.04853865 39.53735352 51.00952148 C36.46111285 56.45170313 33.34248401 61.83866951 29.94750977 67.09155273 C27.19865269 71.3504322 24.74021466 75.69246027 22.34594727 80.15795898 C16.2888446 91.24485836 9.78498128 102.08824201 3.26000977 112.90405273 C-4.46224492 124.56153081 -4.46224492 124.56153081 -9.42749023 137.40405273 C-10.08749023 137.40405273 -10.74749023 137.40405273 -11.42749023 137.40405273 C-12.88811874 140.0514419 -13.42749023 141.29853608 -13.42749023 144.40405273 C-14.08749023 144.40405273 -14.74749023 144.40405273 -15.42749023 144.40405273 C-15.76780273 145.03569336 -16.10811523 145.66733398 -16.45874023 146.31811523 C-18.77149573 150.5868714 -21.09064498 154.84677365 -23.53686523 159.04077148 C-23.89200195 159.65162598 -24.24713867 160.26248047 -24.61303711 160.8918457 C-25.63546113 162.6445056 -26.6641563 164.39350262 -27.69311523 166.14233398 C-29.31577281 169.19395352 -30.44705933 172.09759954 -31.42749023 175.40405273 C-32.08749023 175.40405273 -32.74749023 175.40405273 -33.42749023 175.40405273 C-33.95536133 176.38631836 -33.95536133 176.38631836 -34.49389648 177.38842773 C-37.22756476 182.44178841 -40.01633346 187.45054767 -42.92749023 192.40405273 C-45.25879101 196.38280606 -47.56201508 200.37334145 -49.80249023 204.40405273 C-50.28459961 205.27030273 -50.76670898 206.13655273 -51.26342773 207.02905273 C-52.31595893 209.17649893 -52.96250128 211.06829424 -53.42749023 213.40405273 C-54.08749023 213.40405273 -54.74749023 213.40405273 -55.42749023 213.40405273 C-55.95536133 214.38631836 -55.95536133 214.38631836 -56.49389648 215.38842773 C-59.8277304 221.55123299 -63.27752798 227.63192537 -66.82592773 233.67358398 C-68.12493088 235.88822594 -69.40890951 238.10943169 -70.67749023 240.34155273 C-71.79957811 242.30520651 -72.96327092 244.24599382 -74.17749023 246.15405273 C-75.6703117 248.41214678 -75.6703117 248.41214678 -75.42749023 251.40405273 C-76.08749023 251.40405273 -76.74749023 251.40405273 -77.42749023 251.40405273 C-77.72139648 251.95448242 -78.01530273 252.50491211 -78.31811523 253.07202148 C-86.79584926 268.785063 -95.84595212 284.18871145 -104.88256836 299.58447266 C-105.4465332 300.54716064 -106.01049805 301.50984863 -106.59155273 302.50170898 C-107.09122559 303.3525708 -107.59089844 304.20343262 -108.10571289 305.08007812 C-109.28827178 307.15927614 -110.36744105 309.26087455 -111.42749023 311.40405273 C-104.55980599 311.6579934 -97.69333365 311.83287054 -90.82202148 311.95336914 C-88.4859494 312.00360377 -86.1501909 312.07180817 -83.81518555 312.15844727 C-80.45339742 312.28004386 -77.09576623 312.33651155 -73.73217773 312.38061523 C-72.17090652 312.45803452 -72.17090652 312.45803452 -70.57809448 312.53701782 C-67.55533487 312.5393462 -65.27478613 312.42969196 -62.42749023 311.40405273 C-59.66544646 308.38554775 -58.08567452 305.11514522 -56.42749023 301.40405273 C-55.54335244 299.75190713 -54.64890442 298.10519843 -53.73999023 296.46655273 C-53.24112305 295.54358398 -52.74225586 294.62061523 -52.22827148 293.66967773 C-46.91037792 284.02594884 -41.27427446 274.55455202 -35.70874023 265.05249023 C-35.0809668 263.9795874 -34.45319336 262.90668457 -33.80639648 261.80126953 C-32.57642326 259.70011855 -31.34471887 257.59997979 -30.11108398 255.50097656 C-24.9383841 247.90422587 -24.9383841 247.90422587 -22.42749023 239.40405273 C-21.76749023 239.40405273 -21.10749023 239.40405273 -20.42749023 239.40405273 C-20.12198242 238.83041992 -19.81647461 238.25678711 -19.50170898 237.66577148 C-14.75192953 228.84857525 -9.70689208 220.20746244 -4.67211914 211.55102539 C-3.25271011 209.10255873 -1.84815 206.64593418 -0.4465332 204.18725586 C1.5881347 200.62683076 3.64354726 197.07837022 5.69750977 193.52905273 C6.17470459 192.70405273 6.65189941 191.87905273 7.14355469 191.02905273 C10.74265086 184.81540113 14.37403221 178.62135607 18.04760742 172.45141602 C20.80217522 167.79902073 23.40398555 163.07381738 25.98193359 158.3215332 C28.69554627 153.34414694 31.4763001 148.40497625 34.26000977 143.46655273 C34.8278418 142.45270508 35.39567383 141.43885742 35.98071289 140.39428711 C36.53049805 139.41911133 37.0802832 138.44393555 37.64672852 137.43920898 C38.1374585 136.56659424 38.62818848 135.69397949 39.13378906 134.79492188 C40.57250977 132.40405273 40.57250977 132.40405273 42.25537109 130.27685547 C43.86014552 128.37667061 43.86014552 128.37667061 43.57250977 125.40405273 C44.23250977 125.40405273 44.89250977 125.40405273 45.57250977 125.40405273 C45.94762695 124.66799805 46.32274414 123.93194336 46.70922852 123.17358398 C52.16747876 112.76578693 52.16747876 112.76578693 56.57250977 109.40405273 C60.57250977 109.40405273 60.57250977 109.40405273 63.57250977 110.40405273 C64.26000977 112.46655273 64.26000977 112.46655273 64.57250977 114.40405273 C65.23250977 114.40405273 65.89250977 114.40405273 66.57250977 114.40405273 C66.67595703 114.949729 66.7794043 115.49540527 66.88598633 116.05761719 C67.73614071 118.96331911 69.06324545 121.31256587 70.55688477 123.94702148 C71.46567383 125.55867188 71.46567383 125.55867188 72.39282227 127.20288086 C73.02961914 128.32114258 73.66641602 129.4394043 74.32250977 130.59155273 C75.56738476 132.79332854 76.81217783 134.99515067 78.05688477 137.19702148 C78.65307617 138.24809082 79.24926758 139.29916016 79.86352539 140.38208008 C82.12264096 144.37684186 84.35314172 148.38709993 86.57250977 152.40405273 C87.23250977 152.40405273 87.89250977 152.40405273 88.57250977 152.40405273 C88.69021729 152.97824951 88.8079248 153.55244629 88.92919922 154.14404297 C89.61947178 156.56903466 90.58239324 158.39700588 91.86547852 160.56420898 C92.32752686 161.35174561 92.7895752 162.13928223 93.265625 162.95068359 C93.75877197 163.78092041 94.25191895 164.61115723 94.76000977 165.46655273 C95.77671451 167.19768988 96.79234906 168.92945603 97.80688477 170.66186523 C98.2922168 171.48976562 98.77754883 172.31766602 99.27758789 173.1706543 C100.7438148 175.69950871 102.14044392 178.25917858 103.51000977 180.84155273 C106.84119305 187.04745979 110.5370834 193.03529523 114.1784668 199.06201172 C117.31564972 204.26793092 120.34372015 209.50496037 123.19750977 214.87280273 C125.40547012 218.93745702 127.78646758 222.89987599 130.15454102 226.87280273 C131.57250977 229.40405273 131.57250977 229.40405273 132.57250977 232.40405273 C133.23250977 232.40405273 133.89250977 232.40405273 134.57250977 232.40405273 C134.83821777 233.2794873 135.10392578 234.15492188 135.37768555 235.05688477 C136.53949597 238.31156823 137.92290855 240.99651239 139.68969727 243.95874023 C140.2968457 244.98612305 140.90399414 246.01350586 141.52954102 247.07202148 C142.47893555 248.65950195 142.47893555 248.65950195 143.44750977 250.27905273 C147.38380579 256.89365327 151.24296184 263.46052315 154.57250977 270.40405273 C155.23250977 270.40405273 155.89250977 270.40405273 156.57250977 270.40405273 C156.80583008 271.22647461 157.03915039 272.04889648 157.27954102 272.89624023 C158.83142649 277.10649145 160.93988083 280.70375365 163.26000977 284.52905273 C164.16907501 286.04975991 165.07792842 287.57059373 165.98657227 289.09155273 C166.43033203 289.83018555 166.8740918 290.56881836 167.33129883 291.32983398 C168.95800922 294.04827054 170.54804757 296.78725889 172.13500977 299.52905273 C174.75652391 304.03632587 177.43858034 308.5039788 180.13500977 312.96655273 C182.69754571 317.20885496 185.18305043 321.46371398 187.51000977 325.84155273 C190.0003907 330.49627587 192.75197241 334.9455998 195.57250977 339.40405273 C198.8482169 344.58803786 201.95718909 349.79459237 204.84204102 355.20874023 C211.89047731 368.22368581 219.44151597 380.97648706 227.03173828 393.68066406 C230.6994066 399.84134215 234.17842761 406.08867334 237.57250977 412.40405273 C238.23250977 412.40405273 238.89250977 412.40405273 239.57250977 412.40405273 C240.15258789 411.36506836 240.73266602 410.32608398 241.33032227 409.25561523 C245.6330429 401.56684455 250.00640437 393.94020845 254.57250977 386.40405273 C257.43131122 382.17847339 257.43131122 382.17847339 258.57250977 377.40405273 C259.23250977 377.40405273 259.89250977 377.40405273 260.57250977 377.40405273 C262.56716536 372.35308596 262.56716536 372.35308596 261.22875977 367.26342773 C260.51719727 366.23733398 259.80563477 365.21124023 259.07250977 364.15405273 C258.30975388 363.01368682 257.54936421 361.87173491 256.79125977 360.72827148 C256.05907227 359.6312793 255.32688477 358.53428711 254.57250977 357.40405273 C253.54655485 355.60611704 252.54441381 353.79427229 251.57250977 351.96655273 C245.31606313 340.31139812 238.56014499 328.93652067 231.8371582 317.54663086 C209.32577347 279.40765163 209.32577347 279.40765163 201.04272461 264.55786133 C193.32267102 250.7662521 185.21831183 237.18728943 177.19433594 223.57104492 C170.90927233 212.89405583 164.71131214 202.16574914 158.57250977 191.40405273 C149.12309302 174.7816905 149.12309302 174.7816905 139.26000977 158.40405273 C136.39967342 153.80087987 133.73456156 149.13818515 131.17016602 144.36499023 C124.84240063 132.637738 118.11637605 121.13577315 111.35766602 109.65332031 C108.6084803 104.96794215 105.90164491 100.31366855 103.57250977 95.40405273 C102.91250977 95.40405273 102.25250977 95.40405273 101.57250977 95.40405273 C101.31211914 94.54038086 101.05172852 93.67670898 100.78344727 92.78686523 C99.54893937 89.33820769 98.03954846 86.44238501 96.19750977 83.27905273 C95.8573584 82.69212646 95.51720703 82.1052002 95.16674805 81.50048828 C91.50485576 75.21501853 87.74069007 68.98828044 83.96166992 62.77270508 C80.88385789 57.68695278 77.98364614 52.53134417 75.15698242 47.30224609 C72.30034267 42.07710426 69.31228078 36.92880663 66.32250977 31.77905273 C65.69860352 30.69237305 65.07469727 29.60569336 64.43188477 28.48608398 C63.83375977 27.45612305 63.23563477 26.42616211 62.61938477 25.36499023 C62.08152344 24.43477051 61.54366211 23.50455078 60.98950195 22.54614258 C59.7497652 20.28466009 59.7497652 20.28466009 57.57250977 19.40405273 Z M57.57250977 127.40405273 C57.04790161 128.38088013 57.04790161 128.38088013 56.51269531 129.37744141 C52.03463284 137.6582273 47.29783551 145.77237416 42.51977539 153.88256836 C41.92487305 154.89641602 41.3299707 155.91026367 40.71704102 156.95483398 C40.1844165 157.85886963 39.65179199 158.76290527 39.10302734 159.69433594 C35.61545518 165.10140334 35.61545518 165.10140334 35.03344727 171.15014648 C37.19791659 175.72629609 39.6511941 180.0932771 42.19750977 184.46655273 C42.73585449 185.40031738 43.27419922 186.33408203 43.82885742 187.29614258 C47.39443901 193.45468073 51.07402948 199.52762143 54.84204102 205.56420898 C57.04757433 209.18367337 59.05932793 212.88952161 61.05688477 216.62670898 C63.31815719 220.77043243 65.7378287 224.81827435 68.15454102 228.87280273 C69.57250977 231.40405273 69.57250977 231.40405273 70.57250977 234.40405273 C71.23250977 234.40405273 71.89250977 234.40405273 72.57250977 234.40405273 C72.82645508 235.08209961 73.08040039 235.76014648 73.34204102 236.45874023 C74.78967517 239.92387087 76.48996659 243.22147744 78.26000977 246.52905273 C78.61087646 247.18776367 78.96174316 247.84647461 79.32324219 248.52514648 C82.01578769 253.51650192 84.98929386 258.27224008 88.09594727 263.01733398 C89.9725514 266.05068087 91.31399541 269.07269122 92.57250977 272.40405273 C93.23250977 272.40405273 93.89250977 272.40405273 94.57250977 272.40405273 C94.84579102 273.12334961 95.11907227 273.84264648 95.40063477 274.58374023 C96.55199017 277.35466891 97.86658944 279.90683065 99.32250977 282.52905273 C99.84586914 283.47651367 100.36922852 284.42397461 100.90844727 285.40014648 C101.45758789 286.39143555 102.00672852 287.38272461 102.57250977 288.40405273 C103.69893794 290.46577309 104.82400233 292.52823931 105.94750977 294.59155273 C106.70161133 295.97407227 106.70161133 295.97407227 107.47094727 297.38452148 C108.0162207 298.38418945 108.0162207 298.38418945 108.57250977 299.40405273 C109.23250977 299.40405273 109.89250977 299.40405273 110.57250977 299.40405273 C110.72139648 300.23743164 110.72139648 300.23743164 110.87329102 301.08764648 C111.73387338 303.93862606 113.1074338 305.98951281 114.76000977 308.46655273 C117.73105071 313.03181077 120.40966005 317.66470698 122.98266602 322.46264648 C127.90129661 331.56271734 133.1666047 340.43308559 138.61547852 349.22436523 C140.59060849 352.43345865 142.53158414 355.659276 144.44750977 358.90405273 C145.00180664 359.84249023 145.55610352 360.78092773 146.12719727 361.74780273 C148.89309863 366.83108093 149.90892696 369.65745879 148.57250977 375.40405273 C142.52507988 378.10745187 136.4285123 377.65140651 129.94436646 377.5916748 C127.99482458 377.58639159 126.04528269 377.58111146 124.0957405 377.57594466 C122.00279032 377.56850045 119.90992061 377.55613367 117.81700301 377.54235744 C113.38032354 377.51342427 108.94366824 377.49879672 104.50691414 377.48694611 C102.97939283 377.48274229 101.45187158 377.4785188 99.92435038 377.47427607 C99.16089216 377.47216602 98.39743395 377.47005597 97.61084063 377.46788198 C95.26188807 377.4608818 92.91294354 377.45255895 90.56399667 377.44386435 C75.46866441 377.38932417 60.37423467 377.42839901 45.2789813 377.48780072 C41.75775856 377.50138833 38.23653086 377.51354263 34.71530342 377.52584076 C28.93322454 377.54620922 23.15114923 377.56739573 17.36907578 377.58924866 C8.95593186 377.62104357 0.54278325 377.65143372 -7.8703668 377.68155593 C-21.54354551 377.73054579 -35.21672023 377.78056481 -48.88989258 377.83129883 C-62.11645303 377.88037335 -75.34301526 377.92892092 -88.56958008 377.97680664 C-89.39457308 377.97979364 -90.21956608 377.98278063 -91.06955887 377.98585814 C-95.21120507 378.00085042 -99.35285129 378.01583283 -103.49449754 378.03081036 C-137.47216743 378.15369712 -171.44983089 378.27828222 -205.42749023 378.40405273 C-204.48084578 380.14670344 -203.533328 381.88887975 -202.58544922 383.63085938 C-201.79411842 385.08619835 -201.79411842 385.08619835 -200.98680115 386.57093811 C-198.89447927 390.37248125 -196.70724091 394.1119499 -194.48999023 397.84155273 C-193.62777743 399.29844574 -192.76579987 400.75547799 -191.90405273 402.21264648 C-191.48671875 402.91760254 -191.06938477 403.62255859 -190.6394043 404.34887695 C-188.30293692 408.31108131 -186.005007 412.29569428 -183.70483398 416.27905273 C-182.59825415 418.31387187 -182.59825415 418.31387187 -181.42749023 419.40405273 C-179.2591341 419.50209939 -177.08750942 419.52776414 -174.91693783 419.52710056 C-174.22523915 419.52825441 -173.53354047 419.52940825 -172.82088122 419.53059706 C-170.47390206 419.53327039 -168.1269898 419.52873573 -165.78001404 419.52430725 C-164.09210747 419.52474281 -162.40420097 419.52561742 -160.71629483 419.52689642 C-156.05530194 419.52914445 -151.3943318 419.52511591 -146.73334181 419.52011836 C-141.71558926 419.51581844 -136.6978381 419.51725995 -131.68008423 419.51802063 C-122.97892895 419.51854616 -114.27778113 419.51539636 -105.57662773 419.50978279 C-92.99606554 419.50167167 -80.41550699 419.49905297 -67.83494247 419.4977948 C-47.42609241 419.49560367 -27.01724633 419.48894193 -6.60839844 419.47949219 C13.22233053 419.47031965 33.05305841 419.46323804 52.88378906 419.45898438 C54.10520753 419.45872165 55.326626 419.45845893 56.58505715 419.45818824 C62.71227165 419.45688325 68.83948616 419.45561953 74.96670067 419.45437634 C125.83530646 419.44400182 176.70390792 419.42638185 227.57250977 419.40405273 C226.18011471 415.87130319 224.66421205 412.47978092 222.94750977 409.09155273 C222.50149414 408.20854492 222.05547852 407.32553711 221.59594727 406.41577148 C221.25821289 405.7519043 220.92047852 405.08803711 220.57250977 404.40405273 C219.91250977 404.40405273 219.25250977 404.40405273 218.57250977 404.40405273 C218.30535156 403.52644287 218.03819336 402.64883301 217.76293945 401.74462891 C216.61782135 398.53120582 215.26610753 395.88021519 213.52563477 392.95483398 C212.92750977 391.94098633 212.32938477 390.92713867 211.71313477 389.88256836 C211.08922852 388.8377832 210.46532227 387.79299805 209.82250977 386.71655273 C205.7265595 379.81331452 201.71811277 372.88967375 197.90356445 365.82666016 C196.22847968 362.77789527 194.4300673 359.84518549 192.57250977 356.90405273 C189.55932976 352.06123781 186.75379321 347.15860093 184.05688477 342.13452148 C180.30416055 335.23148405 176.24121261 328.50386729 172.17993164 321.77929688 C169.27724305 316.97156746 166.40209999 312.17435734 163.76000977 307.21655273 C160.87920627 301.8342112 157.72928165 296.6271885 154.57250977 291.40405273 C150.89317393 285.31490859 147.28814945 279.21888691 143.94750977 272.93530273 C141.73954941 268.87064845 139.35855196 264.90822948 136.99047852 260.93530273 C135.57250977 258.40405273 135.57250977 258.40405273 134.57250977 255.40405273 C133.91250977 255.40405273 133.25250977 255.40405273 132.57250977 255.40405273 C132.31727539 254.72342773 132.06204102 254.04280273 131.79907227 253.34155273 C130.37098364 249.92141692 128.69610653 246.66745411 126.94750977 243.40405273 C126.41202515 242.40305542 126.41202515 242.40305542 125.86572266 241.38183594 C123.11279976 236.29089711 120.12989919 231.37889626 117.05688477 226.47436523 C113.4989187 220.71340982 110.14433971 214.83046875 106.76000977 208.96655273 C106.10121826 207.82790771 105.44242676 206.6892627 104.76367188 205.51611328 C104.13726807 204.42854736 103.51086426 203.34098145 102.86547852 202.22045898 C102.30368896 201.24536377 101.74189941 200.27026855 101.16308594 199.265625 C99.54335794 196.3516063 98.04144781 193.39651868 96.57250977 190.40405273 C95.91250977 190.40405273 95.25250977 190.40405273 94.57250977 190.40405273 C94.34563477 189.59967773 94.11875977 188.79530273 93.88500977 187.96655273 C92.23619388 183.49119534 89.96706565 179.51683955 87.57250977 175.40405273 C86.91250977 175.40405273 86.25250977 175.40405273 85.57250977 175.40405273 C85.42813477 174.80592773 85.28375977 174.20780273 85.13500977 173.59155273 C84.68526587 171.84254869 84.14358636 170.11728251 83.57250977 168.40405273 C82.91250977 168.40405273 82.25250977 168.40405273 81.57250977 168.40405273 C81.29665039 167.68088867 81.02079102 166.95772461 80.73657227 166.21264648 C79.61809691 163.5140432 78.35776015 161.02312397 76.94750977 158.46655273 C76.15860352 157.03569336 76.15860352 157.03569336 75.35375977 155.57592773 C73.06846093 151.50649208 70.74030372 147.4623327 68.41186523 143.41748047 C65.96690056 139.14920272 63.70058636 134.83754563 61.57250977 130.40405273 C60.91250977 130.40405273 60.25250977 130.40405273 59.57250977 130.40405273 C59.24250977 129.41405273 58.91250977 128.42405273 58.57250977 127.40405273 C58.24250977 127.40405273 57.91250977 127.40405273 57.57250977 127.40405273 Z M26.57250977 180.40405273 C25.65161134 181.79644348 24.78333751 183.22364729 23.93579102 184.66186523 C23.39647949 185.57613281 22.85716797 186.49040039 22.30151367 187.43237305 C19.42999325 192.36772274 16.58011263 197.3141282 13.76000977 202.27905273 C13.17541992 203.29741211 12.59083008 204.31577148 11.98852539 205.36499023 C11.15417969 206.83452148 11.15417969 206.83452148 10.30297852 208.33374023 C9.8017749 209.21271973 9.30057129 210.09169922 8.78417969 210.99731445 C7.69377669 213.16318041 7.03593911 215.03571925 6.57250977 217.40405273 C5.91250977 217.40405273 5.25250977 217.40405273 4.57250977 217.40405273 C4.26958008 218.03311523 3.96665039 218.66217773 3.65454102 219.31030273 C1.3233228 224.07316087 -1.10168672 228.66518198 -3.96655273 233.12670898 C-5.88346048 236.11482988 -7.75048416 239.13310746 -9.61499023 242.15405273 C-10.28916992 243.24202148 -10.96334961 244.32999023 -11.65795898 245.45092773 C-14.61008267 250.11722356 -14.61008267 250.11722356 -15.42749023 255.40405273 C-16.08749023 255.40405273 -16.74749023 255.40405273 -17.42749023 255.40405273 C-17.9031543 256.29930664 -17.9031543 256.29930664 -18.38842773 257.21264648 C-20.85780614 261.80350745 -23.37352026 266.34252312 -26.05249023 270.81420898 C-26.50575684 271.5722583 -26.95902344 272.33030762 -27.42602539 273.11132812 C-28.33672193 274.62824037 -29.2529894 276.14182324 -30.17504883 277.65185547 C-30.59608887 278.35383057 -31.01712891 279.05580566 -31.45092773 279.77905273 C-31.83168457 280.40553711 -32.21244141 281.03202148 -32.60473633 281.67749023 C-33.64258089 283.53666154 -33.64258089 283.53666154 -33.42749023 286.40405273 C-34.08749023 286.40405273 -34.74749023 286.40405273 -35.42749023 286.40405273 C-36.88811874 289.0514419 -37.42749023 290.29853608 -37.42749023 293.40405273 C-38.08749023 293.40405273 -38.74749023 293.40405273 -39.42749023 293.40405273 C-39.82581055 294.14010742 -40.22413086 294.87616211 -40.63452148 295.63452148 C-41.16432617 296.6103418 -41.69413086 297.58616211 -42.23999023 298.59155273 C-42.76206055 299.55448242 -43.28413086 300.51741211 -43.82202148 301.50952148 C-44.87790229 303.4131898 -45.97889664 305.29264099 -47.12670898 307.14233398 C-48.5936754 309.2581553 -48.5936754 309.2581553 -48.42749023 311.40405273 C-31.34550971 311.53513284 -14.26352429 311.66555276 2.81846714 311.79520416 C10.75137632 311.85542962 18.68428379 311.91586452 26.6171875 311.97680664 C33.53805488 312.02997355 40.45892522 312.08273306 47.37979931 312.13501978 C51.03836891 312.16267381 54.69693679 312.19052067 58.35550117 312.21885681 C62.45721102 312.2506175 66.55892727 312.28146787 70.66064453 312.31225586 C72.44522316 312.32628197 72.44522316 312.32628197 74.26585388 312.34059143 C76.53711713 312.35735963 78.80840889 312.37068255 81.07971382 312.38026428 C83.59797756 312.39741547 86.11293364 312.43131438 88.63053703 312.47996521 C89.98435666 312.49837391 91.33817807 312.51665185 92.69200134 312.53479004 C93.91224975 312.55716484 95.13249815 312.57953964 96.38972378 312.60259247 C99.4160265 312.41381404 101.0433825 312.00183129 103.57250977 310.40405273 C103.20899414 309.88198242 102.84547852 309.35991211 102.47094727 308.82202148 C97.57956743 301.66053973 93.41302869 294.17566886 89.57250977 286.40405273 C88.91250977 286.40405273 88.25250977 286.40405273 87.57250977 286.40405273 C87.45552734 285.83130615 87.33854492 285.25855957 87.21801758 284.66845703 C86.51994259 282.21965011 85.53778205 280.3642449 84.24438477 278.17358398 C83.77387695 277.36985352 83.30336914 276.56612305 82.81860352 275.73803711 C82.07803711 274.48990234 82.07803711 274.48990234 81.32250977 273.21655273 C80.35817183 271.5776981 79.39462694 269.93837655 78.43188477 268.29858398 C77.95710693 267.49042236 77.4823291 266.68226074 76.99316406 265.84960938 C73.66884106 260.1270207 70.47168012 254.35498137 67.57250977 248.40405273 C66.91250977 248.40405273 66.25250977 248.40405273 65.57250977 248.40405273 C65.45641357 247.83452881 65.34031738 247.26500488 65.22070312 246.67822266 C64.51004869 244.18490965 63.49818261 242.26096896 62.20141602 240.01733398 C61.71431152 239.16961426 61.22720703 238.32189453 60.7253418 237.44848633 C60.20053223 236.54694824 59.67572266 235.64541016 59.13500977 234.71655273 C58.59730957 233.78407715 58.05960937 232.85160156 57.50561523 231.89086914 C53.6985603 225.30177878 49.83963722 218.74342721 45.96386719 212.19458008 C42.70114001 206.66664741 39.58462371 201.07319402 36.57250977 195.40405273 C35.91250977 195.40405273 35.25250977 195.40405273 34.57250977 195.40405273 C34.41975586 194.59194336 34.41975586 194.59194336 34.26391602 193.76342773 C33.39493369 190.79808693 32.01778685 188.34880327 30.51000977 185.65405273 C29.9621582 184.66920898 29.41430664 183.68436523 28.84985352 182.66967773 C28.21756836 181.54819336 28.21756836 181.54819336 27.57250977 180.40405273 C27.24250977 180.40405273 26.91250977 180.40405273 26.57250977 180.40405273 Z " fill="#1E1E1F" transform="translate(239.427490234375,16.595947265625)"/>
<path d="M0 0 C117.15 0 234.3 0 355 0 C355 0.33 355 0.66 355 1 C351.41977409 1.81976354 348.12811608 2.12111966 344.45845985 2.11005402 C343.35527546 2.10928266 342.25209107 2.1085113 341.11547685 2.10771656 C339.31453148 2.09892994 339.31453148 2.09892994 337.47720337 2.08996582 C335.52638837 2.08685517 333.57557336 2.08374758 331.62475818 2.08075213 C329.52733172 2.07662299 327.42992492 2.07007455 325.3325069 2.06286526 C320.88767424 2.04781315 316.44284847 2.04007542 311.99799538 2.03406525 C311.24346763 2.03304222 310.48893989 2.0320192 309.71154767 2.03096518 C308.17145372 2.0289123 306.63135973 2.02689341 305.09126569 2.02490789 C302.73718874 2.02170201 300.38311328 2.01790615 298.02903736 2.01402426 C282.89297056 1.99054427 267.7573431 2.02889511 252.62138459 2.0841943 C250.51281202 2.09185499 248.40423873 2.0992735 246.29566503 2.10661602 C238.32835066 2.13439841 230.36104206 2.16355105 222.39373573 2.1935443 C214.68903399 2.22249229 206.98432731 2.25001589 199.27962025 2.27750319 C185.55652726 2.32649636 171.83343823 2.3765151 158.11035156 2.42724609 C144.83528849 2.4763185 131.56022365 2.52486596 118.28515625 2.57275391 C117.45717625 2.5757409 116.62919625 2.5787279 115.77612595 2.58180541 C111.61949569 2.59679766 107.46286539 2.61178008 103.30623507 2.62675762 C69.2041511 2.74964989 35.1020735 2.87423449 1 3 C0.67 2.01 0.34 1.02 0 0 Z " fill="#999999" transform="translate(32,393)"/>
<path d="M0 0 C16.83 0 33.66 0 51 0 C51.495 1.98 51.495 1.98 52 4 C51.34 4 50.68 4 50 4 C48.29319053 5.62553283 46.62339805 7.29115995 45 9 C45.61277612 6.03824877 46.25372522 4.61941217 48 2 C32.16 1.67 16.32 1.34 0 1 C0 0.67 0 0.34 0 0 Z " fill="#B0B0B0" transform="translate(238,28)"/>
<path d="M0 0 C3.5349638 3.5349638 5.73269301 7.27810039 8.25 11.5625 C8.72179687 12.34302734 9.19359375 13.12355469 9.6796875 13.92773438 C10.12054688 14.67474609 10.56140625 15.42175781 11.015625 16.19140625 C11.62325684 17.21536499 11.62325684 17.21536499 12.24316406 18.26000977 C12.61779785 19.12130493 12.61779785 19.12130493 13 20 C12.67 20.66 12.34 21.32 12 22 C8.13885044 20.53542603 6.92009119 18.57835176 5 15 C4.34 14.01 3.68 13.02 3 12 C3 11.01 3 10.02 3 9 C2.34 9 1.68 9 1 9 C0.67 6.03 0.34 3.06 0 0 Z " fill="#4D4D4D" transform="translate(328,172)"/>
<path d="M0 0 C4.17906895 3.55994763 6.68559431 8.08663054 9 13 C9 13.66 9 14.32 9 15 C7.35 14.67 5.7 14.34 4 14 C3.566875 12.576875 3.566875 12.576875 3.125 11.125 C2.23174891 7.94788422 2.23174891 7.94788422 0 6 C-0.125 2.875 -0.125 2.875 0 0 Z " fill="#59595B" transform="translate(348,207)"/>
<path d="M0 0 C3.32643967 2.98232523 5.29152862 5.86370087 7 10 C6.67 10.66 6.34 11.32 6 12 C3.38250326 10.62237014 1.38966817 9.53136569 -0.375 7.125 C-1.16398398 4.44245446 -0.73980543 2.66329954 0 0 Z " fill="#3A3A3A" transform="translate(437,360)"/>
<path d="M0 0 C2.30874711 2.16614803 4.05290181 4.39206608 5.75 7.0625 C6.19859375 7.75472656 6.6471875 8.44695312 7.109375 9.16015625 C7.40328125 9.76730469 7.6971875 10.37445313 8 11 C7.67 11.66 7.34 12.32 7 13 C5.25 12.9375 5.25 12.9375 3 12 C-1.10477658 6.23112481 -1.10477658 6.23112481 -0.75 2.0625 C-0.5025 1.381875 -0.255 0.70125 0 0 Z " fill="#535353" transform="translate(282,202)"/>
<path d="M0 0 C2.61724095 2.36797991 4.32861729 4.89600354 6 8 C6 8.66 6 9.32 6 10 C5.01 10.33 4.02 10.66 3 11 C0.9375 9.4375 0.9375 9.4375 -1 7 C-0.75 3.25 -0.75 3.25 0 0 Z " fill="#4A4A4A" transform="translate(310,34)"/>
<path d="M0 0 C0.82273185 2.36734455 1.10990889 3.64262754 0.36328125 6.0703125 C0.01652344 6.74835938 -0.33023438 7.42640625 -0.6875 8.125 C-1.02136719 8.80820313 -1.35523438 9.49140625 -1.69921875 10.1953125 C-3.22681238 12.31467663 -4.60786878 13.02300325 -7 14 C-5.53967505 8.68972746 -3.01679014 4.53669968 0 0 Z " fill="#717171" transform="translate(131,190)"/>
<path d="M0 0 C4.42857143 5.14285714 4.42857143 5.14285714 5 9 C3.68 9.33 2.36 9.66 1 10 C-0.80411967 7.24075815 -1.0127245 6.11027897 -0.625 2.75 C-0.41875 1.8425 -0.2125 0.935 0 0 Z " fill="#3B3B3B" transform="translate(325,276)"/>
<path d="M0 0 C3.67758005 3.28355362 5.81389118 6.62778237 8 11 C7.67 11.66 7.34 12.32 7 13 C5.35 11.68 3.7 10.36 2 9 C2.33 8.01 2.66 7.02 3 6 C2.01 5.67 1.02 5.34 0 5 C0 3.35 0 1.7 0 0 Z " fill="#767676" transform="translate(34,396)"/>
<path d="M0 0 C0.66 1.32 1.32 2.64 2 4 C0.88321917 5.6721852 -0.24366352 7.33762803 -1.375 9 C-2.00148438 9.928125 -2.62796875 10.85625 -3.2734375 11.8125 C-3.84320313 12.534375 -4.41296875 13.25625 -5 14 C-5.66 14 -6.32 14 -7 14 C-5.78065514 9.96678237 -4.44045073 6.45730521 -2 3 C-1.34 3 -0.68 3 0 3 C0 2.01 0 1.02 0 0 Z " fill="#6A6A6A" transform="translate(500,391)"/>
<path d="M0 0 C2.94995547 3.45856848 5.22675738 6.80021485 7 11 C6.67 11.66 6.34 12.32 6 13 C4.68 12.34 3.36 11.68 2 11 C2 9.35 2 7.7 2 6 C1.01 5.67 0.02 5.34 -1 5 C-0.67 3.35 -0.34 1.7 0 0 Z " fill="#696969" transform="translate(45,414)"/>
<path d="M0 0 C0.66 0 1.32 0 2 0 C2.67154933 1.28913487 3.33708859 2.58140204 4 3.875 C4.37125 4.59429687 4.7425 5.31359375 5.125 6.0546875 C6 8 6 8 6 10 C4.1875 9.8125 4.1875 9.8125 2 9 C0.1875 6.6875 0.1875 6.6875 -1 4 C-0.6875 1.6875 -0.6875 1.6875 0 0 Z " fill="#353534" transform="translate(461,296)"/>
<path d="M0 0 C3.11362141 2.07574761 3.98677849 3.3054575 5.75 6.5 C6.42289062 7.69109375 6.42289062 7.69109375 7.109375 8.90625 C7.55023438 9.94265625 7.55023438 9.94265625 8 11 C7.67 11.66 7.34 12.32 7 13 C4.04415849 10.24800963 1.81234853 7.62469707 0 4 C0 2.68 0 1.36 0 0 Z " fill="#626263" transform="translate(425,340)"/>
<path d="M0 0 C7 8.20689655 7 8.20689655 7 13 C3.3424485 11.78081617 2.57671131 10.15928702 0.78515625 6.85546875 C-0.217815 4.48526307 -0.30800164 2.54101354 0 0 Z " fill="#5A5A5B" transform="translate(397,184)"/>
<path d="M0 0 C2.61500768 2.36595933 4.38999603 4.86049226 6 8 C5.67 8.66 5.34 9.32 5 10 C2.54765115 9.01906046 1.2190732 8.31296172 -0.3125 6.125 C-1.1132654 3.64990694 -0.86325845 2.41712366 0 0 Z " fill="#555555" transform="translate(335,184)"/>
<path d="M0 0 C0.66 0 1.32 0 2 0 C3.03046722 1.78614318 4.04913236 3.57910018 5.0625 5.375 C5.63097656 6.37273437 6.19945312 7.37046875 6.78515625 8.3984375 C7.38650391 9.68621094 7.38650391 9.68621094 8 11 C7.67 11.66 7.34 12.32 7 13 C4.21611025 11.29374499 3.14615794 10.52373261 2.25 7.3125 C2.1675 6.549375 2.085 5.78625 2 5 C1.01 5 0.02 5 -1 5 C-1 4.34 -1 3.68 -1 3 C-0.34 3 0.32 3 1 3 C0.67 2.01 0.34 1.02 0 0 Z " fill="#7E7E7E" transform="translate(348,100)"/>
<path d="M0 0 C2.5722047 1.28610235 3.00974907 2.33393981 4 5 C3.625 7.25 3.625 7.25 3 9 C2.34 8.67 1.68 8.34 1 8 C1 7.34 1 6.68 1 6 C0.34 6 -0.32 6 -1 6 C-1.625 4.125 -1.625 4.125 -2 2 C-1.34 1.34 -0.68 0.68 0 0 Z " fill="#333333" transform="translate(368,241)"/>
<path d="M0 0 C2.94721162 2.74395564 5.19168608 5.38337216 7 9 C6.67 9.66 6.34 10.32 6 11 C4.68 10.67 3.36 10.34 2 10 C1.855625 8.906875 1.71125 7.81375 1.5625 6.6875 C1.11711896 3.06877013 1.11711896 3.06877013 0 0 Z " fill="#757575" transform="translate(290,216)"/>
<path d="M0 0 C1.231394 2.46278801 1.07159196 4.2795055 1 7 C0.360625 7.268125 -0.27875 7.53625 -0.9375 7.8125 C-3.33131686 8.88667752 -3.33131686 8.88667752 -4 12 C-4.66 12 -5.32 12 -6 12 C-4.43358249 7.69235185 -2.31663844 3.93828536 0 0 Z " fill="#808080" transform="translate(27,370)"/>
<path d="M0 0 C1 2 1 2 0.25 4.3125 C-1.01118343 7.02404437 -2.30790527 9.53236186 -4 12 C-4.66 12 -5.32 12 -6 12 C-4.68139111 7.38486888 -2.78644563 3.90102388 0 0 Z " fill="#7D7D7D" transform="translate(41,346)"/>
<path d="M0 0 C0 4.24645065 -1.81750806 6.38524772 -4 10 C-4.66 8.68 -5.32 7.36 -6 6 C-2.25 1.125 -2.25 1.125 0 0 Z " fill="#5D5D5D" transform="translate(85,291)"/>
<path d="M0 0 C2.55028983 1.27514492 2.93081711 2.40341297 4 5 C4 5.99 4 6.98 4 8 C4.66 8 5.32 8 6 8 C6.33 9.32 6.66 10.64 7 12 C5.68 11.67 4.36 11.34 3 11 C2.01 7.37 1.02 3.74 0 0 Z " fill="#545454" transform="translate(390,279)"/>
<path d="M0 0 C2.61500768 2.36595933 4.38999603 4.86049226 6 8 C5.67 8.66 5.34 9.32 5 10 C4.01 9.67 3.02 9.34 2 9 C0.68964993 5.82757352 0 3.44118336 0 0 Z " fill="#5E5E61" transform="translate(419,329)"/>
<path d="M0 0 C2.65183353 1.32591677 3.25136473 2.86562451 4.6875 5.4375 C5.14511719 6.24058594 5.60273438 7.04367187 6.07421875 7.87109375 C6.37972656 8.57363281 6.68523437 9.27617187 7 10 C6.67 10.66 6.34 11.32 6 12 C5.34 11.67 4.68 11.34 4 11 C3.855625 10.34 3.71125 9.68 3.5625 9 C3.376875 8.34 3.19125 7.68 3 7 C2.01 6.67 1.02 6.34 0 6 C0 4.02 0 2.04 0 0 Z " fill="#69696A" transform="translate(412,317)"/>
<path d="M0 0 C2.50037734 2.17424117 3.43628586 3.73045798 4 7 C1.5625 6.25 1.5625 6.25 -1 5 C-1.8125 2.875 -1.8125 2.875 -2 1 C-1.34 0.67 -0.68 0.34 0 0 Z " fill="#545454" transform="translate(313,255)"/>
<path d="M0 0 C2.23960447 2.87949147 4.29864224 5.76742026 6 9 C5.67 9.66 5.34 10.32 5 11 C4.01 10.67 3.02 10.34 2 10 C0.47839986 6.3962102 0 3.94779314 0 0 Z " fill="#5B5C5C" transform="translate(373,249)"/>
<path d="M0 0 C0.33 1.32 0.66 2.64 1 4 C0.34 4 -0.32 4 -1 4 C-1.12375 4.5775 -1.2475 5.155 -1.375 5.75 C-2.00648824 8.02335767 -2.88858191 9.9253529 -4 12 C-4.66 12 -5.32 12 -6 12 C-4.43358249 7.69235185 -2.31663844 3.93828536 0 0 Z " fill="#838383" transform="translate(231,233)"/>
<path d="M0 0 C0 4.24645065 -1.81750806 6.38524772 -4 10 C-6 7 -6 7 -6 5 C-5.01 5 -4.02 5 -3 5 C-3.33 4.01 -3.66 3.02 -4 2 C-2.68 1.34 -1.36 0.68 0 0 Z " fill="#818181" transform="translate(276,71)"/>
<path d="M0 0 C2.79872437 2.52788007 4.45773019 4.20411134 5 8 C2.5625 7.1875 2.5625 7.1875 0 6 C-1 3 -1 3 0 0 Z " fill="#535353" transform="translate(330,69)"/>
<path d="M0 0 C2 1 2 1 3.125 4.0625 C3.41375 5.031875 3.7025 6.00125 4 7 C2.68 7.33 1.36 7.66 0 8 C-0.79953138 4.71303767 -1.09658936 3.28976808 0 0 Z " fill="#4D4D4D" transform="translate(450,382)"/>
<path d="M0 0 C1 2 1 2 1 6 C-1.5 8.25 -1.5 8.25 -4 10 C-4.33 9.34 -4.66 8.68 -5 8 C-4.00390625 6.0546875 -4.00390625 6.0546875 -2.5625 3.875 C-2.08941406 3.15054687 -1.61632812 2.42609375 -1.12890625 1.6796875 C-0.75636719 1.12539063 -0.38382812 0.57109375 0 0 Z " fill="#7E7E7E" transform="translate(120,316)"/>
<path d="M0 0 C0.33 0.66 0.66 1.32 1 2 C0.22265625 3.7265625 0.22265625 3.7265625 -0.9375 5.625 C-1.618125 6.73875 -2.29875 7.8525 -3 9 C-3.66 7.68 -4.32 6.36 -5 5 C-3 2 -3 2 0 0 Z " fill="#767676" transform="translate(173,248)"/>
<path d="M0 0 C2.45484649 2.13464912 3.68134222 3.70720291 4 7 C3.34 7.66 2.68 8.32 2 9 C-2 3.25 -2 3.25 -2 1 C-1.34 0.67 -0.68 0.34 0 0 Z " fill="#505053" transform="translate(292,236)"/>
<path d="M0 0 C0 3.69418201 -1.28179295 5.77836178 -3 9 C-4.0625 7.1875 -4.0625 7.1875 -5 5 C-4 2 -4 2 -1.9375 0.8125 C-1.298125 0.544375 -0.65875 0.27625 0 0 Z " fill="#676767" transform="translate(238,136)"/>
<path d="M0 0 C2.61500768 2.36595933 4.38999603 4.86049226 6 8 C5.67 8.66 5.34 9.32 5 10 C1.32769295 6.92000054 0.43197635 4.7517398 0 0 Z " fill="#636363" transform="translate(319,266)"/>
<path d="M0 0 C0.33 0.66 0.66 1.32 1 2 C0.06553465 4.03144641 -0.93224776 6.03533587 -2 8 C-2.66 8 -3.32 8 -4 8 C-4.33 7.01 -4.66 6.02 -5 5 C-3.35 3.35 -1.7 1.7 0 0 Z " fill="#717171" transform="translate(500,413)"/>
<path d="M0 0 C0.66 1.32 1.32 2.64 2 4 C1.525625 4.45375 1.05125 4.9075 0.5625 5.375 C-1.09027808 6.93258204 -1.09027808 6.93258204 -2 9 C-2.66 9 -3.32 9 -4 9 C-2.94124926 5.59687262 -1.99097846 2.98646769 0 0 Z " fill="#7D7D7D" transform="translate(47,335)"/>
<path d="M0 0 C2.4375 0.75 2.4375 0.75 5 2 C5.8125 4.125 5.8125 4.125 6 6 C4.35 5.67 2.7 5.34 1 5 C0.67 3.35 0.34 1.7 0 0 Z " fill="#3F3F3F" transform="translate(351,216)"/>
<path d="M0 0 C0 4.24645065 -1.81750806 6.38524772 -4 10 C-5.47968023 7.04063954 -4.84835797 5.13239866 -4 2 C-1.9375 0.625 -1.9375 0.625 0 0 Z " fill="#7D7D7D" transform="translate(291,45)"/>
<path d="M0 0 C2 1 2 1 3.125 4.0625 C3.41375 5.031875 3.7025 6.00125 4 7 C1.525 6.01 1.525 6.01 -1 5 C-1 2 -1 2 0 0 Z " fill="#5D5D5D" transform="translate(461,401)"/>
<path d="M0 0 C4.42857143 5.14285714 4.42857143 5.14285714 5 9 C3.68 8.34 2.36 7.68 1 7 C1.33 6.01 1.66 5.02 2 4 C1.34 4 0.68 4 0 4 C0 2.68 0 1.36 0 0 Z " fill="#696969" transform="translate(454,389)"/>
<path d="M0 0 C1.32 1.32 2.64 2.64 4 4 C3.67 4.66 3.34 5.32 3 6 C2.34 5.67 1.68 5.34 1 5 C0.67 5.66 0.34 6.32 0 7 C-0.38133299 5.0085944 -0.71325582 3.00720923 -1 1 C-0.67 0.67 -0.34 0.34 0 0 Z " fill="#424242" transform="translate(296,227)"/>
<path d="M0 0 C0.78375 0.04125 1.5675 0.0825 2.375 0.125 C-0.58783313 2.51172669 -3.56770509 4.8603371 -6.625 7.125 C-4.07142857 0.19387755 -4.07142857 0.19387755 0 0 Z " fill="#4D4D4D" transform="translate(234.625,17.875)"/>
<path d="M0 0 C0.66 0 1.32 0 2 0 C2 0.66 2 1.32 2 2 C2.99 2.33 3.98 2.66 5 3 C5 3.99 5 4.98 5 6 C5.66 6.66 6.32 7.32 7 8 C6.34 8.66 5.68 9.32 5 10 C3.35 6.7 1.7 3.4 0 0 Z " fill="#747478" transform="translate(490,367)"/>
<path d="M0 0 C1.37562854 1.28965176 2.70766393 2.62689293 4 4 C4 4.66 4 5.32 4 6 C2.35 5.67 0.7 5.34 -1 5 C-0.67 3.35 -0.34 1.7 0 0 Z " fill="#646464" transform="translate(437,360)"/>
<path d="M0 0 C0.33 0.99 0.66 1.98 1 3 C0.34 3 -0.32 3 -1 3 C-1.12375 3.61875 -1.2475 4.2375 -1.375 4.875 C-2 7 -2 7 -4 9 C-4.33 7.68 -4.66 6.36 -5 5 C-4.01 5 -3.02 5 -2 5 C-2.33 4.01 -2.66 3.02 -3 2 C-2.01 1.34 -1.02 0.68 0 0 Z " fill="#838383" transform="translate(50,351)"/>
<path d="M0 0 C2.96865509 2.54456151 4.3619751 5.48994665 6 9 C4.35 8.67 2.7 8.34 1 8 C1 6.68 1 5.36 1 4 C0.34 3.34 -0.32 2.68 -1 2 C-0.67 1.34 -0.34 0.68 0 0 Z " fill="#484848" transform="translate(433,247)"/>
<path d="M0 0 C0 3.57575896 -1.08840607 5.05295935 -3 8 C-3.66 6.68 -4.32 5.36 -5 4 C-4.01 3.67 -3.02 3.34 -2 3 C-2 2.34 -2 1.68 -2 1 C-1.34 0.67 -0.68 0.34 0 0 Z " fill="#797979" transform="translate(179,238)"/>
<path d="M0 0 C2.72426311 2.35277269 3.8141763 4.62496331 5 8 C3.68 7.67 2.36 7.34 1 7 C0.67 4.69 0.34 2.38 0 0 Z " fill="#4D4D4E" transform="translate(363,233)"/>
<path d="M0 0 C1.875 0.5 1.875 0.5 4 2 C4.98494554 4.65177645 5.45912382 7.20547307 6 10 C3.38275905 7.63202009 1.67138271 5.10399646 0 2 C0 1.34 0 0.68 0 0 Z " fill="#828687" transform="translate(383,182)"/>
<path d="M0 0 C0.99 0.33 1.98 0.66 3 1 C3 1.66 3 2.32 3 3 C4.45833358 4.62514468 4.45833358 4.62514468 6 6 C5.01 7.485 5.01 7.485 4 9 C0 2.25 0 2.25 0 0 Z " fill="#818184" transform="translate(368,156)"/>
<path d="M0 0 C0.99 0.33 1.98 0.66 3 1 C0.6875 3.5 0.6875 3.5 -2 6 C-2.99 6 -3.98 6 -5 6 C-3.63016497 2.83884224 -3.0109362 2.0072908 0 0 Z " fill="#767676" transform="translate(297,124)"/>
<path d="M0 0 C0.33 1.32 0.66 2.64 1 4 C-0.98 5.32 -2.96 6.64 -5 8 C-3.8141763 4.62496331 -2.72426311 2.35277269 0 0 Z " fill="#0B0B0B" transform="translate(177,115)"/>
<path d="M0 0 C0.99 0.495 0.99 0.495 2 1 C2 1.99 2 2.98 2 4 C2.66 4 3.32 4 4 4 C4 4.99 4 5.98 4 7 C2.68 7 1.36 7 0 7 C0 4.69 0 2.38 0 0 Z " fill="#585858" transform="translate(306,27)"/>
<path d="M0 0 C0.66 0.33 1.32 0.66 2 1 C0.42655961 4.14688078 -2.27851951 5.79965407 -5 8 C-4.45773019 4.20411134 -2.79872437 2.52788007 0 0 Z " fill="#6D6D6D" transform="translate(288,29)"/>
<path d="M0 0 C4 4.75 4 4.75 4 7 C2.68 6.67 1.36 6.34 0 6 C-1.125 2.25 -1.125 2.25 0 0 Z " fill="#494949" transform="translate(487,340)"/>
<path d="M0 0 C0.33 0.66 0.66 1.32 1 2 C0.06421005 4.35981813 -0.93347808 6.69631264 -2 9 C-2.66 9 -3.32 9 -4 9 C-2.94124926 5.59687262 -1.99097846 2.98646769 0 0 Z " fill="#949494" transform="translate(69,297)"/>
<path d="M0 0 C0 3 0 3 -1 6 C-1.66 6 -2.32 6 -3 6 C-3.33 6.99 -3.66 7.98 -4 9 C-4.33 7.68 -4.66 6.36 -5 5 C-4.01 4.67 -3.02 4.34 -2 4 C-2 3.01 -2 2.02 -2 1 C-1.34 0.67 -0.68 0.34 0 0 Z " fill="#878787" transform="translate(207,297)"/>
<path d="M0 0 C0.66 0.99 1.32 1.98 2 3 C0.02 3.99 0.02 3.99 -2 5 C-2 5.99 -2 6.98 -2 8 C-2.66 8 -3.32 8 -4 8 C-2.87548273 5.0280615 -1.77706209 2.66559313 0 0 Z " fill="#848484" transform="translate(145,273)"/>
<path d="M0 0 C0.66 0.33 1.32 0.66 2 1 C1.1875 3.9375 1.1875 3.9375 0 7 C-0.99 7.33 -1.98 7.66 -3 8 C-2.37240135 5.07120629 -1.41377341 2.63904371 0 0 Z " fill="#9B9B9B" transform="translate(217,256)"/>
<path d="M0 0 C0.33 0.66 0.66 1.32 1 2 C0.67 2.66 0.34 3.32 0 4 C-0.66 4 -1.32 4 -2 4 C-2.33 4.99 -2.66 5.98 -3 7 C-3.66 5.68 -4.32 4.36 -5 3 C-3 1 -3 1 0 0 Z " fill="#6F6F6F" transform="translate(208,188)"/>
<path d="M0 0 C1.32 1.32 2.64 2.64 4 4 C3.67 4.99 3.34 5.98 3 7 C0 5 0 5 -1 2 C-0.67 1.34 -0.34 0.68 0 0 Z " fill="#666666" transform="translate(306,134)"/>
<path d="M0 0 C0.66 1.32 1.32 2.64 2 4 C0.35 5.32 -1.3 6.64 -3 8 C-3 4.42424104 -1.91159393 2.94704065 0 0 Z " fill="#868686" transform="translate(193,83)"/>
<path d="M0 0 C2.55028983 1.27514492 2.93081711 2.40341297 4 5 C4 5.99 4 6.98 4 8 C2.68 7.67 1.36 7.34 0 7 C0 4.69 0 2.38 0 0 Z " fill="#767676" transform="translate(326,61)"/>
<path d="M0 0 C0 3.57575896 -1.08840607 5.05295935 -3 8 C-3.66 6.68 -4.32 5.36 -5 4 C-3.35 2.68 -1.7 1.36 0 0 Z " fill="#6D6D6D" transform="translate(281,62)"/>
</svg>
